<svg width="25" height="25" viewBox="0 0 25 25" fill="none" xmlns="http://www.w3.org/2000/svg">
<g id="Account">
<g id="Group">
<path id="Vector" d="M12.4995 11.4042C11.337 11.4042 10.2221 10.9424 9.40006 10.1203C8.57802 9.29829 8.11621 8.18337 8.11621 7.02084C8.11621 5.85831 8.57802 4.74339 9.40006 3.92136C10.2221 3.09933 11.337 2.63751 12.4995 2.63751C13.6621 2.63751 14.777 3.09933 15.599 3.92136C16.4211 4.74339 16.8829 5.85831 16.8829 7.02084C16.8829 8.18337 16.4211 9.29829 15.599 10.1203C14.777 10.9424 13.6621 11.4042 12.4995 11.4042Z" stroke="white" stroke-width="1.4" stroke-linecap="round"/>
<path id="Vector_2" d="M3.73291 22.3625V21.2667C3.73291 19.5229 4.42563 17.8505 5.65868 16.6174C6.89173 15.3844 8.56411 14.6917 10.3079 14.6917H14.6912C16.435 14.6917 18.1074 15.3844 19.3405 16.6174C20.5735 17.8505 21.2662 19.5229 21.2662 21.2667V22.3625" stroke="white" stroke-width="1.4" stroke-linecap="round"/>
</g>
</g>
</svg>
