<svg width="42" height="26" viewBox="0 0 42 26" fill="none" xmlns="http://www.w3.org/2000/svg">
<g clip-path="url(#clip0_1907_28971)">
<path d="M38.1667 0H3.5C2.63805 0 1.8114 0.34241 1.2019 0.951903C0.59241 1.5614 0.25 2.38805 0.25 3.25L0.25 22.75C0.25 23.612 0.59241 24.4386 1.2019 25.0481C1.8114 25.6576 2.63805 26 3.5 26H38.1667C39.0286 26 39.8553 25.6576 40.4648 25.0481C41.0743 24.4386 41.4167 23.612 41.4167 22.75V3.25C41.4167 2.38805 41.0743 1.5614 40.4648 0.951903C39.8553 0.34241 39.0286 0 38.1667 0V0Z" fill="#B2FCE4"/>
<path d="M39.3802 10.8335L38.2319 10.1727L37.0835 9.47934C36.9072 9.37879 36.7076 9.32632 36.5046 9.32716C36.3016 9.328 36.1024 9.38214 35.9269 9.48414C35.7514 9.58615 35.6057 9.73246 35.5045 9.90843C35.4033 10.0844 35.3501 10.2838 35.3502 10.4868V10.6277C35.3502 10.6682 35.36 10.7081 35.3789 10.744C35.3978 10.7799 35.4251 10.8106 35.4585 10.8335L36.0002 11.1368C36.0256 11.152 36.0538 11.1617 36.0831 11.1655C36.1124 11.1694 36.1422 11.1671 36.1706 11.159C36.199 11.1509 36.2255 11.1371 36.2483 11.1183C36.2712 11.0996 36.29 11.0764 36.3035 11.0502C36.3132 11.0147 36.3132 10.9773 36.3035 10.9418V10.5952C36.3021 10.5653 36.3065 10.5354 36.3166 10.5073C36.3268 10.4791 36.3423 10.4532 36.3624 10.4311C36.3826 10.4089 36.4069 10.391 36.4339 10.3782C36.461 10.3655 36.4903 10.3582 36.5202 10.3568H36.6502L37.7335 10.9743L38.8169 11.581C38.8695 11.6145 38.907 11.6673 38.9212 11.728C38.9353 11.7888 38.9251 11.8527 38.8927 11.906L38.8169 11.9818L37.7335 12.5885L36.6502 13.206C36.6246 13.2218 36.5962 13.2324 36.5665 13.2371C36.5369 13.2418 36.5065 13.2406 36.4773 13.2336C36.4481 13.2265 36.4206 13.2138 36.3963 13.196C36.3721 13.1783 36.3516 13.1559 36.336 13.1302C36.325 13.0875 36.325 13.0428 36.336 13.0002V12.8268C36.3361 12.6238 36.2829 12.4244 36.1817 12.2484C36.0805 12.0725 35.9349 11.9262 35.7594 11.8241C35.5839 11.7221 35.3847 11.668 35.1817 11.6672C34.9787 11.6663 34.7791 11.7188 34.6027 11.8193L33.4327 12.491L32.2844 13.1518C32.0192 13.3061 31.8253 13.5582 31.7442 13.854C31.6632 14.1499 31.7015 14.4657 31.851 14.7335C31.9508 14.9166 32.1012 15.0671 32.2844 15.1668L33.4327 15.8277L34.6027 16.4885C34.7791 16.5891 34.9787 16.6415 35.1817 16.6407C35.3847 16.6398 35.5839 16.5857 35.7594 16.4837C35.9349 16.3817 36.0805 16.2354 36.1817 16.0594C36.2829 15.8835 36.3361 15.684 36.336 15.481V15.3402C36.3361 15.2996 36.3262 15.2597 36.3074 15.2238C36.2885 15.188 36.2611 15.1573 36.2277 15.1343L35.686 14.8202C35.6607 14.8051 35.6324 14.7953 35.6031 14.7915C35.5738 14.7877 35.5441 14.7899 35.5157 14.798C35.4873 14.8061 35.4608 14.82 35.4379 14.8387C35.4151 14.8574 35.3963 14.8806 35.3827 14.9068C35.3731 14.946 35.3731 14.9869 35.3827 15.026V15.3727C35.3842 15.4026 35.3797 15.4324 35.3696 15.4606C35.3595 15.4888 35.3439 15.5146 35.3238 15.5368C35.3037 15.5589 35.2794 15.5769 35.2523 15.5896C35.2253 15.6023 35.1959 15.6096 35.166 15.611C35.1233 15.6208 35.0788 15.6208 35.036 15.611L33.9527 14.9935L32.8694 14.3868C32.8147 14.3609 32.772 14.3151 32.7498 14.2587C32.7277 14.2024 32.7278 14.1397 32.7502 14.0835L32.826 14.0077L33.9094 13.401L34.9927 12.7835C35.0183 12.7677 35.0467 12.7572 35.0764 12.7524C35.1061 12.7477 35.1364 12.7489 35.1656 12.7559C35.1948 12.763 35.2223 12.7758 35.2466 12.7935C35.2708 12.8113 35.2913 12.8336 35.3069 12.8593C35.3179 12.902 35.3179 12.9467 35.3069 12.9893V13.1627C35.3068 13.3657 35.36 13.5651 35.4612 13.7411C35.5624 13.9171 35.708 14.0634 35.8835 14.1654C36.059 14.2674 36.2582 14.3215 36.4612 14.3224C36.6642 14.3232 36.8639 14.2707 37.0402 14.1702L38.2102 13.4985L39.3585 12.8377C39.4881 12.758 39.6004 12.6534 39.6892 12.5299C39.778 12.4064 39.8413 12.2666 39.8756 12.1184C39.9098 11.9703 39.9143 11.8168 39.8888 11.6669C39.8633 11.517 39.8082 11.3736 39.7269 11.2452C39.6478 11.081 39.5286 10.9394 39.3802 10.8335Z" fill="black"/>
<path d="M31.8184 11.0283L29.1209 16.5967H28.0375L29.045 14.5167L27.4634 11.0283H28.6117L29.63 13.3575L30.7134 11.0283H31.8184Z" fill="black"/>
<path d="M4.85421 13.0002C4.84361 12.7885 4.77119 12.5847 4.64589 12.4138C4.5206 12.2429 4.34794 12.1125 4.14929 12.0387C3.95064 11.965 3.73472 11.9511 3.52827 11.9988C3.32181 12.0466 3.13388 12.1538 2.98775 12.3072C2.84161 12.4607 2.74368 12.6536 2.70609 12.8621C2.66849 13.0707 2.69287 13.2856 2.77622 13.4805C2.85957 13.6753 2.99823 13.8414 3.17502 13.9582C3.35181 14.075 3.55898 14.1374 3.77088 14.1377C4.05819 14.1377 4.33374 14.0235 4.53691 13.8204C4.74007 13.6172 4.85421 13.3417 4.85421 13.0543V13.0002ZM4.85421 14.9827V14.4627C4.70134 14.6474 4.50924 14.7957 4.29187 14.8969C4.07449 14.9981 3.83731 15.0496 3.59754 15.0477C3.34287 15.042 3.0918 14.9863 2.85868 14.8836C2.62555 14.7809 2.41495 14.6333 2.23889 14.4492C2.06283 14.2651 1.92478 14.0481 1.8326 13.8106C1.74043 13.5732 1.69595 13.3198 1.70171 13.0652V13.0002C1.69156 12.7412 1.73256 12.4828 1.82237 12.2397C1.91219 11.9966 2.04905 11.7735 2.22513 11.5834C2.40121 11.3932 2.61306 11.2396 2.84855 11.1314C3.08404 11.0232 3.33856 10.9624 3.59754 10.9527C3.83304 10.9511 4.06596 11.0018 4.27952 11.1011C4.49307 11.2004 4.68195 11.3458 4.83254 11.5268V11.0285H5.79671V14.9827H4.85421Z" fill="black"/>
<path d="M10.5633 14.0833C10.2166 14.0833 10.1299 13.9533 10.1299 13.6283V11.9167H10.7474V11.0608H10.1299V10.0642H9.13326V11.0283H7.83326V10.6275C7.83326 10.3025 7.96326 10.1725 8.30992 10.1725H8.52659V9.40332H8.06076C7.23742 9.40332 6.84742 9.67415 6.84742 10.4867V11.0175H6.29492V11.9167H6.84742V15.015H7.83326V11.9167H9.13326V13.8558C9.13326 14.6683 9.43659 15.015 10.2166 15.015H10.7583V14.0833H10.5633Z" fill="black"/>
<path d="M14.1385 12.6426C14.1062 12.4082 13.9869 12.1944 13.8042 12.0439C13.6216 11.8933 13.389 11.817 13.1527 11.8301C12.9157 11.8192 12.683 11.8961 12.4991 12.046C12.3152 12.1959 12.1931 12.4083 12.156 12.6426H14.1385ZM12.1668 13.2601C12.1836 13.5159 12.2993 13.7551 12.4894 13.927C12.6795 14.0989 12.929 14.19 13.1852 14.181C13.3711 14.1832 13.5545 14.1375 13.7176 14.0483C13.8808 13.9592 14.0183 13.8295 14.1168 13.6718H15.1352C15.0092 14.0895 14.7461 14.4525 14.3883 14.7022C14.0305 14.9518 13.599 15.0735 13.1635 15.0476C12.6478 15.0834 12.139 14.9129 11.749 14.5736C11.359 14.2344 11.1196 13.7541 11.0835 13.2385V13.0001C11.0835 12.4571 11.2992 11.9363 11.6832 11.5523C12.0672 11.1684 12.588 10.9526 13.131 10.9526C13.674 10.9526 14.1948 11.1684 14.5788 11.5523C14.9628 11.9363 15.1785 12.4571 15.1785 13.0001C15.1893 13.0828 15.1893 13.1666 15.1785 13.2493L12.1668 13.2601Z" fill="black"/>
<path d="M21.5483 13.0002C21.5412 12.7153 21.4221 12.4447 21.2169 12.247C21.0116 12.0493 20.7367 11.9405 20.4518 11.944C20.1668 11.9476 19.8948 12.0633 19.6945 12.266C19.4943 12.4688 19.382 12.7423 19.382 13.0273C19.382 13.3122 19.4943 13.5857 19.6945 13.7885C19.8948 13.9913 20.1668 14.107 20.4518 14.1105C20.7367 14.1141 21.0116 14.0052 21.2169 13.8075C21.4221 13.6098 21.5412 13.3392 21.5483 13.0544V13.0002ZM18.4175 16.5969V11.0285H19.3816V11.5377C19.5345 11.353 19.7266 11.2046 19.944 11.1034C20.1614 11.0022 20.3985 10.9507 20.6383 10.9527C20.893 10.9569 21.1443 11.0113 21.378 11.1127C21.6116 11.214 21.823 11.3605 22.0001 11.5436C22.1771 11.7267 22.3164 11.9428 22.4099 12.1798C22.5034 12.4167 22.5493 12.6697 22.545 12.9244V13.0002C22.5551 13.2592 22.5141 13.5176 22.4243 13.7607C22.3345 14.0038 22.1976 14.2268 22.0216 14.417C21.8455 14.6072 21.6336 14.7607 21.3981 14.869C21.1626 14.9772 20.9081 15.0379 20.6491 15.0477C20.4222 15.052 20.197 15.0068 19.9893 14.9151C19.7816 14.8234 19.5964 14.6875 19.4466 14.5169V16.5969H18.4175Z" fill="black"/>
<path d="M26.0549 13.0002C26.0441 12.7909 25.9729 12.5893 25.8499 12.4197C25.7269 12.2501 25.5573 12.1198 25.3617 12.0446C25.1662 11.9694 24.953 11.9525 24.748 11.996C24.5431 12.0396 24.3551 12.1416 24.207 12.2897C24.0588 12.4379 23.9568 12.6258 23.9133 12.8308C23.8698 13.0358 23.8866 13.2489 23.9618 13.4445C24.037 13.6401 24.1673 13.8097 24.3369 13.9327C24.5065 14.0557 24.7081 14.1269 24.9174 14.1377H24.9716C25.2589 14.1377 25.5344 14.0235 25.7376 13.8204C25.9408 13.6172 26.0549 13.3417 26.0549 13.0543V13.0002ZM26.0549 14.9827V14.4627C25.9047 14.6477 25.7147 14.7965 25.4989 14.8978C25.2832 14.9991 25.0474 15.0503 24.8091 15.0477C24.5544 15.0434 24.3031 14.9891 24.0694 14.8877C23.8357 14.7863 23.6244 14.6399 23.4473 14.4568C23.2702 14.2737 23.131 14.0575 23.0375 13.8206C22.944 13.5837 22.8981 13.3307 22.9024 13.076V13.0002C22.8922 12.7412 22.9332 12.4828 23.0231 12.2397C23.1129 11.9966 23.2497 11.7735 23.4258 11.5834C23.6019 11.3932 23.8137 11.2396 24.0492 11.1314C24.2847 11.0232 24.5392 10.9624 24.7982 10.9527C25.0322 10.9512 25.2635 11.002 25.4753 11.1013C25.687 11.2006 25.874 11.346 26.0224 11.5268V11.0285H26.9974V14.9827H26.0549Z" fill="black"/>
<path d="M16.6625 11.4183C16.7526 11.2732 16.8788 11.1539 17.0288 11.0723C17.1789 10.9906 17.3475 10.9493 17.5183 10.9525C17.6639 10.9487 17.8085 10.9783 17.9408 11.0391V12.0575C17.7297 11.9274 17.4845 11.8632 17.2367 11.8733C17.0662 11.9099 16.9158 12.0094 16.8154 12.152C16.715 12.2945 16.672 12.4696 16.695 12.6425V14.9825H15.6875V11.0283H16.6625V11.4183Z" fill="black"/>
</g>
<defs>
<clipPath id="clip0_1907_28971">
<rect width="41.1667" height="26" fill="white" transform="translate(0.25)"/>
</clipPath>
</defs>
</svg>
