<svg width="39" height="26" viewBox="0 0 39 26" fill="none" xmlns="http://www.w3.org/2000/svg">
<g clip-path="url(#clip0_1907_29065)">
<path d="M0 3.25C0 1.45507 1.45507 0 3.25 0H35.75C37.5449 0 39 1.45507 39 3.25V22.75C39 24.5449 37.5449 26 35.75 26H3.25C1.45507 26 0 24.5449 0 22.75V3.25Z" fill="#D4DEF7"/>
<path d="M28.781 8.01999L28.0264 9.6835H29.5397L28.781 8.01999ZM20.0733 9.05083C20.2155 8.98332 20.2993 8.83648 20.2993 8.65412C20.2993 8.47543 20.2113 8.34601 20.0691 8.28519C19.9395 8.21777 19.7402 8.20999 19.5491 8.20999H18.1991V9.13686H19.531C19.7443 9.13691 19.9226 9.13406 20.0733 9.05083ZM2.77441 8.01999L2.02834 9.6835H3.52498L2.77441 8.01999ZM37.5102 18.6769H35.3929V17.7819H37.5016C37.7107 17.7819 37.8571 17.757 37.9452 17.6785C38.0286 17.6086 38.0757 17.5097 38.0748 17.4064C38.0748 17.2847 38.0217 17.1882 37.9408 17.1304C37.8614 17.0667 37.7455 17.0377 37.5545 17.0377C36.5251 17.0059 35.2408 17.0666 35.2408 15.7458C35.2408 15.1405 35.6634 14.5033 36.8139 14.5033H38.9978V13.6728H36.9688C36.3564 13.6728 35.9115 13.8062 35.5966 14.0137V13.6728H32.5954C32.1155 13.6728 31.5522 13.781 31.2858 14.0137V13.6728H25.9262V14.0137C25.4998 13.7338 24.7799 13.6728 24.4479 13.6728H20.9128V14.0137C20.5754 13.7164 19.8248 13.6728 19.3676 13.6728H15.4112L14.506 14.5642L13.658 13.6728H7.74787V19.4972H13.5465L14.4793 18.5915L15.358 19.4972L18.9323 19.5V18.1299H19.2838C19.758 18.1368 20.3173 18.1193 20.811 17.9252V19.497H23.7591V17.9789H23.9013C24.0827 17.9789 24.1007 17.9858 24.1007 18.1508V19.4966H33.0569C33.6255 19.4966 34.2199 19.3644 34.549 19.1238V19.4966H37.3899C37.981 19.4966 38.5584 19.4212 38.9977 19.2282V18.1433C38.7314 18.4975 38.2123 18.6771 37.5101 18.6771L37.5102 18.6769ZM19.3308 17.3017H17.9627V18.7016H15.8318L14.4818 17.32L13.0788 18.7016H8.73604V14.5278H13.1456L14.4945 15.896L15.889 14.5278H19.3923C20.2623 14.5278 21.2399 14.747 21.2399 15.9029C21.2399 17.0623 20.2891 17.3017 19.3308 17.3017ZM25.9089 17.1124C26.0638 17.3162 26.0861 17.5063 26.0906 17.8743V18.7017H24.9898V18.1796C24.9898 17.9285 25.0164 17.5566 24.8126 17.3625C24.6526 17.2131 24.4083 17.1774 24.0082 17.1774H22.8365V18.7017H21.735V14.5279H24.266C24.8213 14.5279 25.2254 14.5504 25.5853 14.7248C25.9313 14.915 26.149 15.1756 26.149 15.6517C26.1489 16.3178 25.6606 16.6577 25.372 16.7621C25.6159 16.844 25.8153 16.9909 25.9089 17.1124ZM30.4378 15.3911H27.8704V16.1498H30.375V17.0014H27.8704V17.8319L30.4378 17.8356V18.7016H26.7786V14.5278H30.4378V15.3911ZM33.255 18.7016H31.1197V17.8066H33.2465C33.4545 17.8066 33.602 17.7816 33.6944 17.7032C33.7697 17.6387 33.8239 17.5448 33.8239 17.4311C33.8239 17.3094 33.7652 17.2128 33.6901 17.1549C33.6062 17.0913 33.4905 17.0625 33.2997 17.0625C32.2744 17.0305 30.9903 17.0912 30.9903 15.7705C30.9903 15.1651 31.4085 14.5279 32.5579 14.5279H34.7559V15.4161H32.7446C32.5453 15.4161 32.4157 15.4231 32.3055 15.4917C32.1852 15.5593 32.1407 15.6595 32.1407 15.7918C32.1407 15.9493 32.2427 16.0565 32.3806 16.1028C32.4963 16.1394 32.6204 16.1501 32.8072 16.1501L33.3975 16.1647C33.9924 16.1777 34.4011 16.2715 34.6495 16.5003C34.8628 16.7012 34.9775 16.955 34.9775 17.3845C34.9774 18.2824 34.3607 18.7016 33.255 18.7016ZM24.7518 15.4584C24.6194 15.3868 24.4239 15.383 24.2288 15.383H22.8787V16.3203H24.2107C24.424 16.3203 24.6053 16.3135 24.7518 16.2343C24.8939 16.1562 24.979 16.0122 24.979 15.8337C24.979 15.6552 24.8939 15.526 24.7518 15.4584ZM37.0016 15.3829C36.8022 15.3829 36.6695 15.3898 36.5579 15.4583C36.4422 15.526 36.3978 15.6262 36.3978 15.7586C36.3978 15.9159 36.4955 16.0231 36.6375 16.0695C36.7533 16.1061 36.8774 16.1168 37.06 16.1168L37.6543 16.1312C38.2538 16.1447 38.6542 16.2386 38.8983 16.4673C38.9427 16.499 38.9694 16.5347 39 16.5705V15.383H37.0017L37.0016 15.3829ZM19.3687 15.3829H17.9392V16.4459H19.356C19.7772 16.4459 20.0392 16.2557 20.0394 15.8947C20.0392 15.5297 19.7645 15.3829 19.3687 15.3829ZM9.82801 15.3829V16.1417H12.2349V16.9934H9.82801V17.8237H12.5235L13.7759 16.5993L12.5767 15.3829H9.82801ZM16.8667 18.3017V14.9555L15.1834 16.6016L16.8667 18.3017ZM9.92002 11.6004V12.3196H19.0797L19.0755 10.7982H19.2527C19.3769 10.8021 19.413 10.8125 19.413 10.999V12.3196H24.1505V11.9654C24.5326 12.1517 25.1268 12.3196 25.9089 12.3196H27.902L28.3285 11.3928H29.2742L29.6913 12.3196H33.5319V11.4393L34.1134 12.3196H37.1912V6.5H34.1454V7.18731L33.7189 6.5H30.5935V7.18731L30.2018 6.5H25.98C25.2733 6.5 24.6522 6.58973 24.1504 6.83983V6.5H21.237V6.83983C20.9176 6.58204 20.4825 6.5 19.9988 6.5H9.3551L8.64099 8.00318L7.90757 6.5H4.55515V7.18731L4.18679 6.5H1.32773L5.00011e-05 9.26709V11.4805L1.96329 7.30761H3.59228L5.45682 11.2584V7.30761H7.24631L8.68109 10.1384L9.99922 7.30761H11.8246V11.4805H10.7008L10.6967 8.21236L9.1069 11.4805H8.14428L6.55039 8.20947V11.4805H4.32034L3.89909 10.5497H1.61634L1.19073 11.4805H0V12.3199H1.87334L2.2957 11.3931H3.24142L3.66268 12.3199H7.34841V11.6113L7.67737 12.3229H9.59071L9.91972 11.6006L9.92002 11.6004ZM24.3538 7.794C24.7081 7.46096 25.2633 7.30738 26.0188 7.30738H27.0801V8.20149H26.041C25.6411 8.20149 25.415 8.25561 25.1974 8.44874C25.0104 8.62441 24.8822 8.95655 24.8822 9.39389C24.8822 9.84098 24.98 10.1633 25.1836 10.3738C25.3525 10.539 25.6593 10.5891 25.9478 10.5891H26.4404L27.9855 7.30752H29.6282L31.4844 11.2544V7.30757H33.1538L35.081 10.2137V7.30757H36.204V11.4803H34.6504L32.5722 8.34838V11.4803H30.3394L29.9128 10.5495H27.6352L27.2213 11.4803H25.9383C25.4054 11.4803 24.7307 11.3731 24.3486 11.0187C23.9632 10.6644 23.7629 10.1845 23.7629 9.42575C23.7627 8.80681 23.8824 8.24108 24.3538 7.794ZM22.0987 7.30742H23.2174V11.4803H22.0987V7.30742ZM17.0551 7.30742H19.5768C20.1369 7.30742 20.55 7.32095 20.9045 7.5073C21.2513 7.69369 21.4592 7.96582 21.4592 8.43118C21.4592 9.09655 20.9711 9.44023 20.6868 9.54349C20.9266 9.62657 21.1316 9.77332 21.2293 9.89486C21.3841 10.1024 21.4107 10.2878 21.4107 10.6605V11.4802H20.3049L20.3008 10.954C20.3008 10.7029 20.3272 10.3418 20.1277 10.1411C19.9676 9.99442 19.7233 9.96247 19.3286 9.96247H18.1516V11.4803H17.0553L17.0551 7.30742ZM12.6354 7.30742H16.2979V8.17638H13.7318V8.92854H16.2363V9.78391H13.7318V10.6173H16.2979V11.4802H12.6354V7.30742Z" fill="#2557D6"/>
</g>
<defs>
<clipPath id="clip0_1907_29065">
<rect width="39" height="26" fill="white"/>
</clipPath>
</defs>
</svg>
