<svg width="25" height="25" viewBox="0 0 25 25" fill="none" xmlns="http://www.w3.org/2000/svg">
<g id="Card">
<path id="Union" fill-rule="evenodd" clip-rule="evenodd" d="M17.1822 5.89819C16.9869 5.64091 16.8429 5.35216 16.7574 5.05881C16.2199 3.21393 14.5153 1.86797 12.4997 1.86797C10.4841 1.86797 8.77945 3.21393 8.24195 5.05881C8.15648 5.35216 8.01244 5.64091 7.8172 5.89819H17.1822ZM4.07686 7.19819V23.7H20.9228V7.19819H4.07686ZM6.99384 4.69517C6.85332 5.17747 6.43815 5.55409 5.9358 5.55409H3.77686C3.22457 5.55409 2.77686 6.00181 2.77686 6.55409V24C2.77686 24.5523 3.22457 25 3.77685 25H21.2228C21.775 25 22.2228 24.5523 22.2228 24V6.55409C22.2228 6.00181 21.775 5.55409 21.2228 5.55409H19.0636C18.5612 5.55409 18.1461 5.17747 18.0055 4.69517C17.3108 2.31046 15.1087 0.56797 12.4997 0.56797C9.89067 0.56797 7.68863 2.31046 6.99384 4.69517Z" fill="white"/>
</g>
</svg>
