<svg width="40" height="26" viewBox="0 0 40 26" fill="none" xmlns="http://www.w3.org/2000/svg">
<g clip-path="url(#clip0_1907_29053)">
<path d="M0.75 3.25C0.75 1.45507 2.20507 0 4 0H36.5C38.2949 0 39.75 1.45507 39.75 3.25V22.75C39.75 24.5449 38.2949 26 36.5 26H4C2.20507 26 0.75 24.5449 0.75 22.75V3.25Z" fill="#FCE0CF"/>
<path d="M23.9712 12.9856C23.9742 12.287 23.7123 11.5875 23.1852 11.0604C22.657 10.5321 21.9557 10.2704 21.2557 10.2746C21.2524 10.2746 21.2491 10.2744 21.2457 10.2744C19.7257 10.2744 18.52 11.4798 18.52 13.0002C18.52 14.5056 19.7405 15.7258 21.2457 15.7258C22.7661 15.7258 23.9716 14.5202 23.9716 13.0002C23.9716 12.9952 23.9712 12.9905 23.9712 12.9856Z" fill="#F26E21"/>
<path d="M18.0133 14.1535C17.6059 14.5613 17.2299 14.7206 16.8249 14.7293C15.8383 14.7204 15.1129 13.9897 15.1129 12.948C15.1129 12.4236 15.3114 11.9938 15.6259 11.6266C15.9209 11.3466 16.3009 11.1656 16.7379 11.1656C17.2096 11.1656 17.5767 11.3229 17.9957 11.7422V10.5366C17.5767 10.3271 17.2095 10.2222 16.7379 10.2222C16.0715 10.2698 15.4433 10.539 14.9613 10.9618C14.8225 11.0868 14.6894 11.2247 14.5765 11.3826C14.2245 11.8389 14.0117 12.3975 14.0117 13.0006C14.0117 14.5205 15.2177 15.6737 16.7378 15.6737C16.7452 15.6737 16.7525 15.673 16.7597 15.673C16.7699 15.6731 16.78 15.6737 16.7901 15.6737C17.2094 15.6737 17.5767 15.5691 18.0484 15.3594L18.0133 14.1535C17.9957 14.1712 18.0309 14.1876 18.0133 14.2044V14.1535Z" fill="#2B2B2B"/>
<path d="M27.4129 10.9729L26.2258 13.8915L24.8628 10.4316H23.7622L25.9113 15.726H26.4879L28.7419 10.4316H27.6412L27.4129 10.9729Z" fill="#2B2B2B"/>
<path d="M29.1616 12.7381V15.569H31.9924H32.0446V14.73H31.1535H30.21V13.7867V13.315H31.9924V12.4236H30.21V11.3229H32.0446V10.4316H29.1616V12.7381Z" fill="#2B2B2B"/>
<path d="M5.46801 10.4316H4V15.569H5.46793C6.2541 15.569 6.83061 15.3591 7.30238 14.9922C7.8789 14.5204 8.24599 13.7867 8.24599 13.0006C8.24607 11.48 7.14508 10.4316 5.46801 10.4316ZM6.67353 14.3109C6.35899 14.5729 5.93963 14.73 5.31056 14.73H4.99602V11.3228H5.25807C5.88715 11.3228 6.30651 11.4277 6.62112 11.7421C6.98799 12.0564 7.19778 12.5284 7.19778 13.0003C7.25019 13.4721 7.04055 13.9961 6.67353 14.3109Z" fill="#2B2B2B"/>
<path d="M9.71421 10.4312H8.71826V15.5683H9.71421V10.4312Z" fill="#2B2B2B"/>
<path d="M12.2302 12.4235C11.6013 12.2138 11.4439 12.0565 11.4439 11.7945C11.4439 11.4799 11.7584 11.2179 12.1778 11.2179C12.4923 11.2179 12.7543 11.3228 13.0165 11.6373L13.5408 10.9559C13.1213 10.5888 12.5973 10.3794 12.0207 10.3794C11.1293 10.3794 10.3954 11.0085 10.3954 11.8469C10.3954 12.5809 10.7103 12.8954 11.6536 13.2623C12.073 13.4194 12.2303 13.472 12.3353 13.5768C12.5446 13.6815 12.6497 13.8913 12.6497 14.1008C12.6497 14.5202 12.3353 14.8348 11.8633 14.8348C11.3911 14.8348 10.9721 14.5728 10.7624 14.1533L10.1333 14.7824C10.6053 15.4638 11.1819 15.7783 11.9158 15.7783C12.9641 15.7783 13.6976 15.0969 13.6976 14.1008C13.6977 13.2099 13.3835 12.8429 12.2302 12.4235Z" fill="#2B2B2B"/>
<path d="M34.8754 13.4195C35.6614 13.2625 36.0809 12.7381 36.0809 11.952C36.0809 11.0086 35.3994 10.4316 34.2463 10.4316H32.7261V15.569H33.722V13.5244H33.8795L35.2944 15.569H36.5002L34.8754 13.4195ZM34.0364 12.7904H33.7221V11.218H34.0364C34.6655 11.218 35.0326 11.48 35.0326 12.0045C35.0326 12.5285 34.6656 12.7904 34.0364 12.7904Z" fill="#2B2B2B"/>
</g>
<defs>
<clipPath id="clip0_1907_29053">
<rect width="39" height="26" fill="white" transform="translate(0.75)"/>
</clipPath>
</defs>
</svg>
