<svg width="43" height="26" viewBox="0 0 43 26" fill="none" xmlns="http://www.w3.org/2000/svg">
<path d="M42.2938 23.9528C42.2938 25.0787 41.3725 26 40.2466 26H2.71375C1.58776 26 0.666504 25.0787 0.666504 23.9528V2.04724C0.666504 0.92126 1.58776 0 2.71375 0H40.2466C41.3725 0 42.2938 0.92126 42.2938 2.04724V23.9528Z" fill="#FFB951"/>
<path fill-rule="evenodd" clip-rule="evenodd" d="M24.4822 15.6277C23.0492 16.6854 20.9337 17.2654 19.1253 17.2654C16.6004 17.2654 14.3143 16.3442 12.5741 14.7746C12.4376 14.6382 12.5741 14.5017 12.7106 14.5699C14.5872 15.6618 16.8733 16.3101 19.2618 16.3101C20.8654 16.3101 22.6397 15.9689 24.2434 15.2864C24.5164 15.1841 24.7211 15.457 24.4822 15.6277Z" fill="#231F20"/>
<path fill-rule="evenodd" clip-rule="evenodd" d="M25.0966 14.9451C24.926 14.7063 23.8682 14.8428 23.3905 14.8769C23.2541 14.8769 23.2199 14.7745 23.3564 14.6722C24.1753 14.0921 25.5401 14.2627 25.7107 14.4675C25.8814 14.6722 25.6766 16.037 24.8918 16.6853C24.7895 16.7877 24.653 16.7194 24.7212 16.5829C24.8918 16.1735 25.2672 15.184 25.0966 14.9451Z" fill="#231F20"/>
<path fill-rule="evenodd" clip-rule="evenodd" d="M23.424 10.5779V9.99781C23.424 9.89545 23.4922 9.86133 23.5604 9.86133H26.0854C26.1536 9.86133 26.2219 9.92957 26.2219 9.99781V10.4755C26.2219 10.5437 26.1536 10.6802 26.0171 10.8167L24.6864 12.6933C25.1641 12.6933 25.6759 12.7616 26.1195 13.0004C26.2219 13.0687 26.256 13.1369 26.256 13.2052V13.8193C26.256 13.8876 26.1536 13.9899 26.0854 13.9558C25.3006 13.5464 24.277 13.5122 23.3898 13.9558C23.2875 13.9899 23.2192 13.9217 23.2192 13.8193V13.2393C23.2192 13.1369 23.2192 13.0004 23.3216 12.864L24.857 10.6802H23.5263C23.4922 10.7143 23.424 10.6802 23.424 10.5779Z" fill="#231F20"/>
<path fill-rule="evenodd" clip-rule="evenodd" d="M14.1781 14.1263H13.3933C13.3251 14.1263 13.2568 14.0581 13.2568 13.9898V10.0318C13.2568 9.96357 13.3251 9.89533 13.3933 9.89533H14.1099C14.1781 9.89533 14.2463 9.96357 14.2463 10.0318V10.5436C14.4169 10.0318 14.7923 9.79297 15.27 9.79297C15.7476 9.79297 16.0547 10.0318 16.2595 10.5436C16.4301 10.0318 16.8736 9.79297 17.3172 9.79297C17.6584 9.79297 17.9996 9.92945 18.2043 10.2365C18.4432 10.5777 18.4091 11.0554 18.4091 11.4649V13.9557C18.4091 14.0239 18.3408 14.0922 18.2726 14.0922H17.4878C17.4196 14.0922 17.3513 14.0239 17.3513 13.9557V11.8402C17.3513 11.6696 17.3513 11.2602 17.3172 11.0896C17.249 10.8166 17.0784 10.7484 16.8736 10.7484C16.703 10.7484 16.4983 10.8848 16.3959 11.0896C16.3277 11.2943 16.3277 11.6355 16.3277 11.8402V13.9557C16.3277 14.0239 16.2595 14.0922 16.1912 14.0922H15.4064C15.3382 14.0922 15.27 14.0239 15.27 13.9557V11.8402C15.27 11.3966 15.3382 10.7484 14.7923 10.7484C14.2463 10.7484 14.2463 11.3966 14.2463 11.8402V13.9557C14.3146 14.0581 14.2463 14.1263 14.1781 14.1263Z" fill="#231F20"/>
<path fill-rule="evenodd" clip-rule="evenodd" d="M28.4404 9.79297C29.6005 9.79297 30.2146 10.7825 30.2146 12.0108C30.2146 13.205 29.5322 14.1945 28.4404 14.1945C27.3144 14.1945 26.7002 13.205 26.7002 11.9767C26.7002 10.7483 27.3144 9.79297 28.4404 9.79297ZM28.4404 10.6119C27.8603 10.6119 27.8262 11.3966 27.8262 11.8743C27.8262 12.352 27.8262 13.3756 28.4404 13.3756C29.0545 13.3756 29.0545 12.5567 29.0545 12.0449C29.0545 11.7037 29.0545 11.2943 28.9522 10.9872C28.8498 10.7142 28.6792 10.6119 28.4404 10.6119Z" fill="#231F20"/>
<path fill-rule="evenodd" clip-rule="evenodd" d="M31.6815 14.1264H30.8967C30.8285 14.1264 30.7603 14.0581 30.7603 13.9899V10.0319C30.7603 9.96363 30.8285 9.89539 30.8967 9.89539H31.6133C31.6815 9.89539 31.7498 9.92951 31.7498 9.99775V10.6119C31.9545 10.066 32.2616 9.82715 32.8075 9.82715C33.1487 9.82715 33.4899 9.96363 33.6946 10.3048C33.8994 10.6119 33.8994 11.1579 33.8994 11.5332V14.024C33.8994 14.0922 33.8311 14.1605 33.7629 14.1605H32.9781C32.9099 14.1605 32.8416 14.0922 32.8416 14.024V11.8744C32.8416 11.4308 32.8757 10.8166 32.3639 10.8166C32.1933 10.8166 31.9886 10.9531 31.9204 11.1237C31.818 11.3626 31.7839 11.6014 31.7839 11.8744V14.024C31.8521 14.0581 31.7839 14.1264 31.6815 14.1264Z" fill="#231F20"/>
<path fill-rule="evenodd" clip-rule="evenodd" d="M21.4121 12.2155C21.4121 12.5226 21.4121 12.7615 21.2756 13.0344C21.1392 13.2392 20.9686 13.3756 20.7297 13.3756C20.4226 13.3756 20.252 13.1368 20.252 12.8297C20.252 12.1814 20.8321 12.0449 21.4121 12.0449V12.2155ZM22.1969 14.1263C22.1287 14.1604 22.0604 14.1604 22.0263 14.1604C21.7533 13.9557 21.7192 13.8533 21.5827 13.6486C21.1733 14.0922 20.8662 14.1945 20.3203 14.1945C19.672 14.1945 19.1602 13.7851 19.1602 13.0003C19.1602 12.3861 19.5014 11.9426 19.9791 11.7379C20.3885 11.5672 20.9686 11.5331 21.4462 11.4649V11.3625C21.4462 11.1919 21.4462 10.9531 21.3439 10.8166C21.2415 10.6801 21.0709 10.6119 20.9003 10.6119C20.5932 10.6119 20.3544 10.7484 20.2861 11.0896C20.2861 11.1578 20.2179 11.226 20.1497 11.226L19.399 11.1578C19.3308 11.1578 19.2625 11.0896 19.2966 10.9872C19.4672 10.0659 20.2861 9.79297 21.0368 9.79297C21.4121 9.79297 21.8898 9.89533 22.1969 10.1683C22.5722 10.5095 22.5381 10.9872 22.5381 11.499V12.6932C22.5381 13.0686 22.6746 13.205 22.8452 13.4098C22.8793 13.478 22.9134 13.5804 22.8452 13.6145C22.6064 13.7169 22.3334 13.9898 22.1969 14.1263Z" fill="#231F20"/>
<path fill-rule="evenodd" clip-rule="evenodd" d="M11.2778 12.2155C11.2778 12.5226 11.2778 12.7615 11.1414 13.0344C11.0049 13.2392 10.8343 13.3756 10.5954 13.3756C10.2883 13.3756 10.1177 13.1368 10.1177 12.8297C10.1177 12.1814 10.6978 12.0449 11.2778 12.0449V12.2155ZM12.0626 14.1263C11.9944 14.1604 11.9261 14.1604 11.892 14.1604C11.6191 13.9557 11.5849 13.8533 11.4485 13.6486C11.039 14.0922 10.7319 14.1945 10.186 14.1945C9.53769 14.1945 9.02588 13.7851 9.02588 13.0003C9.02588 12.3861 9.36709 11.9426 9.84478 11.7379C10.2542 11.5672 10.8343 11.5331 11.312 11.4649V11.3625C11.312 11.1919 11.312 10.9531 11.2096 10.8166C11.1072 10.6801 10.9366 10.6119 10.766 10.6119C10.4589 10.6119 10.2201 10.7484 10.1519 11.0896C10.1519 11.1578 10.0836 11.226 10.0154 11.226L9.26472 11.1578C9.19648 11.1578 9.12824 11.0896 9.16236 10.9872C9.33297 10.0659 10.1519 9.79297 10.9025 9.79297C11.2778 9.79297 11.7555 9.89533 12.0626 10.1683C12.438 10.5095 12.4038 10.9872 12.4038 11.499V12.6932C12.4038 13.0686 12.5403 13.205 12.7109 13.4098C12.745 13.478 12.7792 13.5804 12.7109 13.6145C12.5062 13.7169 12.2332 13.9898 12.0626 14.1263Z" fill="#231F20"/>
</svg>
