<svg width="24" height="21" viewBox="0 0 24 21" fill="none" xmlns="http://www.w3.org/2000/svg">
<g id="Group 1651">
<path id="Vector 41" d="M6.37567 1.1665L1.11963 10.4998L6.37567 19.8332H17.1969L22.453 10.4998L17.1969 1.1665H6.37567Z" stroke="#F5F6F6" stroke-width="1.5"/>
<path id="100" d="M9.37931 11.9412L9.38822 11.833H9.27964H8.34144L8.67265 7.76115L8.68144 7.65304H8.57298H8.17298H8.14556L8.12197 7.66703L6.7953 8.45369L6.75099 8.47997L6.74666 8.53132L6.69333 9.16465L6.67721 9.35607L6.84326 9.25948L7.69815 8.76219L7.45395 11.833H6.51298H6.42087L6.41331 11.9248L6.36665 12.4915L6.35773 12.5997H6.46631H9.23298H9.32508L9.33264 12.5079L9.37931 11.9412ZM10.4642 12.0803L10.4647 12.081C10.7624 12.4652 11.1941 12.653 11.7437 12.653C12.3512 12.653 12.827 12.3934 13.1608 11.881C13.4911 11.3739 13.6504 10.672 13.6504 9.78637C13.6504 9.09499 13.5106 8.55183 13.2161 8.17178C12.9183 7.78755 12.4866 7.59971 11.937 7.59971C11.5386 7.59971 11.1915 7.71511 10.9011 7.94841L10.9005 7.94892C10.616 8.18125 10.4025 8.51427 10.2558 8.9405C10.109 9.36713 10.037 9.87653 10.037 10.4664C10.037 11.1575 10.1745 11.7004 10.4642 12.0803ZM12.5467 8.6611L12.5467 8.6611L12.5474 8.66221C12.6863 8.8685 12.7637 9.20417 12.7637 9.68637C12.7637 10.4365 12.6706 10.9922 12.4935 11.3633C12.4054 11.5479 12.3 11.6795 12.1805 11.765C12.0621 11.8498 11.9244 11.893 11.7637 11.893C11.4715 11.893 11.2677 11.7898 11.1337 11.5911C10.9989 11.3845 10.9237 11.0485 10.9237 10.5664C10.9237 9.82093 11.0168 9.26753 11.1938 8.89635C11.2842 8.70939 11.3913 8.57595 11.512 8.48928C11.6317 8.40336 11.7699 8.35971 11.9304 8.35971C12.2178 8.35971 12.4169 8.46265 12.5467 8.6611ZM14.4616 12.0803L14.4621 12.081C14.7598 12.4652 15.1915 12.653 15.7411 12.653C16.3486 12.653 16.8244 12.3934 17.1582 11.881C17.4885 11.3739 17.6478 10.672 17.6478 9.78637C17.6478 9.09499 17.508 8.55183 17.2135 8.17178C16.9157 7.78755 16.484 7.59971 15.9344 7.59971C15.536 7.59971 15.1889 7.71511 14.8985 7.94841L14.8978 7.94892C14.6134 8.18125 14.3999 8.51427 14.2532 8.9405C14.1064 9.36713 14.0344 9.87653 14.0344 10.4664C14.0344 11.1575 14.1719 11.7004 14.4616 12.0803ZM16.5441 8.6611L16.5448 8.66221C16.6837 8.8685 16.7611 9.20417 16.7611 9.68637C16.7611 10.4365 16.668 10.9922 16.4909 11.3633C16.4027 11.5479 16.2974 11.6795 16.1779 11.765C16.0595 11.8498 15.9218 11.893 15.7611 11.893C15.4689 11.893 15.2651 11.7898 15.1311 11.5911C14.9963 11.3845 14.9211 11.0485 14.9211 10.5664C14.9211 9.82088 15.0142 9.26746 15.1913 8.89628C15.2816 8.70936 15.3887 8.57594 15.5094 8.48928C15.6291 8.40336 15.7673 8.35971 15.9278 8.35971C16.2152 8.35971 16.4143 8.46265 16.5441 8.6611L16.5441 8.6611Z" fill="#F5F6F6" stroke="white" stroke-width="0.2"/>
</g>
</svg>
