<svg width="40" height="26" viewBox="0 0 40 26" fill="none" xmlns="http://www.w3.org/2000/svg">
<g clip-path="url(#clip0_1907_29068)">
<path d="M0.5 3.25C0.5 1.45507 1.95507 0 3.75 0H36.25C38.0449 0 39.5 1.45507 39.5 3.25V22.75C39.5 24.5449 38.0449 26 36.25 26H3.75C1.95507 26 0.5 24.5449 0.5 22.75V3.25Z" fill="#FDEACE"/>
<path d="M24.0691 5.30366L15.6768 5.33252L15.9311 20.6968L24.3234 20.6679L24.0691 5.30366Z" fill="#FF5F00"/>
<path d="M16.2291 13.0454C16.1771 9.92043 17.577 7.14378 19.7697 5.34271C18.1146 4.04397 16.0397 3.26299 13.7905 3.2707C8.46193 3.28895 4.22358 7.67866 4.31344 13.0862C4.40331 18.4937 8.78706 22.8539 14.1156 22.8357C16.3649 22.828 18.4136 22.0329 20.0253 20.723C17.7734 18.9643 16.281 16.1704 16.2291 13.0454Z" fill="#EB001B"/>
<path d="M35.6865 12.9137C35.7764 18.3212 31.5381 22.7109 26.2095 22.7292C23.9603 22.7369 21.8854 21.9559 20.2303 20.6572C22.4497 18.856 23.8228 16.0795 23.7709 12.9545C23.719 9.82954 22.227 7.06278 19.9747 5.27694C21.5864 3.96701 23.6351 3.17191 25.8844 3.16421C31.2129 3.14596 35.5971 7.53332 35.6865 12.9137Z" fill="#F79E1B"/>
</g>
<defs>
<clipPath id="clip0_1907_29068">
<rect width="39" height="26" fill="white" transform="translate(0.5)"/>
</clipPath>
</defs>
</svg>
