<svg width="39" height="26" viewBox="0 0 39 26" fill="none" xmlns="http://www.w3.org/2000/svg">
<g clip-path="url(#clip0_1907_29044)">
<path d="M0 3.25C0 1.45507 1.45507 0 3.25 0H35.75C37.5449 0 39 1.45507 39 3.25V22.75C39 24.5449 37.5449 26 35.75 26H3.25C1.45507 26 0 24.5449 0 22.75V3.25Z" fill="#CCDEFF"/>
<path d="M8.75129 9.3579C8.34393 9.07786 7.81236 8.9375 7.15658 8.9375H4.61776C4.41672 8.9375 4.30566 9.03804 4.28456 9.23893L3.25324 15.7128C3.24252 15.7764 3.25843 15.8345 3.30082 15.8874C3.34296 15.9404 3.39598 15.9667 3.45946 15.9667H4.66539C4.8769 15.9667 4.99316 15.8664 5.0145 15.6653L5.30007 13.9199C5.3105 13.8353 5.3477 13.7666 5.41119 13.7136C5.47462 13.6607 5.55397 13.6262 5.64918 13.6103C5.74439 13.5946 5.83416 13.5867 5.91894 13.5867C6.00348 13.5867 6.10392 13.5921 6.22047 13.6026C6.33673 13.6131 6.41084 13.6183 6.4426 13.6183C7.35229 13.6183 8.06631 13.362 8.58474 12.8487C9.10292 12.3358 9.36231 11.6245 9.36231 10.7145C9.36231 10.0904 9.15846 9.63824 8.75129 9.35776V9.3579ZM7.4423 11.3018C7.38924 11.6721 7.25189 11.9153 7.02975 12.0317C6.80757 12.1482 6.49023 12.2063 6.07773 12.2063L5.55407 12.2221L5.82388 10.5242C5.84493 10.4079 5.91365 10.3497 6.0301 10.3497H6.33168C6.75461 10.3497 7.06157 10.4107 7.25199 10.5322C7.4423 10.6539 7.50579 10.9105 7.4423 11.3018Z" fill="#003087"/>
<path d="M35.5434 8.9375H34.3694C34.2527 8.9375 34.184 8.9957 34.163 9.11215L33.1316 15.7131L33.1157 15.7448C33.1157 15.798 33.1369 15.848 33.1793 15.8956C33.2214 15.9431 33.2745 15.9669 33.3379 15.9669H34.3853C34.586 15.9669 34.6971 15.8667 34.7186 15.6655L35.7499 9.17564V9.15988C35.7498 9.01171 35.6809 8.93769 35.5434 8.93769V8.9375Z" fill="#009CDE"/>
<path d="M21.3577 11.4926C21.3577 11.4399 21.3365 11.3895 21.2945 11.342C21.252 11.2945 21.2044 11.2705 21.1516 11.2705H19.9298C19.8132 11.2705 19.718 11.3237 19.6441 11.4292L17.9622 13.9046L17.264 11.5245C17.2109 11.3553 17.0946 11.2705 16.915 11.2705H15.7247C15.6717 11.2705 15.6241 11.2944 15.582 11.342C15.5396 11.3895 15.5186 11.44 15.5186 11.4926C15.5186 11.5139 15.6217 11.8259 15.8279 12.4288C16.0342 13.032 16.2563 13.6826 16.4943 14.3808C16.7324 15.0789 16.8566 15.4493 16.8672 15.4913C15.9997 16.6762 15.5662 17.3109 15.5662 17.3954C15.5662 17.5331 15.6348 17.6017 15.7725 17.6017H16.9942C17.1106 17.6017 17.2057 17.549 17.2799 17.4431L21.3262 11.6037C21.3472 11.5827 21.3577 11.5458 21.3577 11.4926V11.4926Z" fill="#003087"/>
<path d="M32.7354 11.2702H31.5295C31.3812 11.2702 31.2916 11.4448 31.2599 11.794C30.9845 11.371 30.4824 11.1592 29.7523 11.1592C28.9907 11.1592 28.3427 11.4449 27.8086 12.0161C27.2743 12.5873 27.0073 13.2593 27.0073 14.0314C27.0073 14.6557 27.1898 15.1528 27.5547 15.5229C27.9196 15.8934 28.4088 16.0783 29.0226 16.0783C29.3293 16.0783 29.6413 16.0147 29.9587 15.8879C30.276 15.7609 30.5244 15.5918 30.7045 15.3801C30.7045 15.3907 30.6937 15.4382 30.6728 15.5228C30.6514 15.6075 30.641 15.6712 30.641 15.7132C30.641 15.8826 30.7096 15.967 30.8473 15.967H31.9423C32.143 15.967 32.2595 15.8667 32.2911 15.6656L32.9418 11.5241C32.9522 11.4606 32.9364 11.4025 32.8942 11.3495C32.8517 11.2968 32.7989 11.2702 32.7354 11.2702ZM30.6648 14.3963C30.395 14.6608 30.0697 14.793 29.6889 14.793C29.382 14.793 29.1336 14.7085 28.9431 14.5391C28.7526 14.3702 28.6574 14.1375 28.6574 13.8409C28.6574 13.4498 28.7897 13.119 29.0542 12.8492C29.3183 12.5795 29.6466 12.4446 30.038 12.4446C30.3339 12.4446 30.5799 12.5319 30.7758 12.7064C30.9713 12.881 31.0695 13.1216 31.0695 13.4285C31.0694 13.8093 30.9345 14.132 30.6648 14.3963Z" fill="#009CDE"/>
<path d="M14.7097 11.2702H13.5038C13.3555 11.2702 13.2657 11.4448 13.234 11.794C12.9484 11.371 12.4458 11.1592 11.7265 11.1592C10.9649 11.1592 10.3169 11.4449 9.78272 12.0161C9.24844 12.5873 8.98145 13.2593 8.98145 14.0314C8.98145 14.6557 9.16395 15.1528 9.52892 15.5229C9.89389 15.8934 10.383 16.0783 10.9966 16.0783C11.2927 16.0783 11.5996 16.0147 11.9169 15.8879C12.2343 15.7609 12.4882 15.5918 12.6786 15.3801C12.6362 15.5069 12.6151 15.6181 12.6151 15.7132C12.6151 15.8826 12.6838 15.967 12.8214 15.967H13.9162C14.1171 15.967 14.2336 15.8667 14.2653 15.6656L14.9159 11.5241C14.9263 11.4606 14.9105 11.4025 14.8683 11.3495C14.826 11.2968 14.7731 11.2702 14.7097 11.2702ZM12.639 14.4042C12.3692 14.6637 12.0385 14.793 11.6473 14.793C11.3404 14.793 11.0944 14.7085 10.9094 14.5391C10.7242 14.3702 10.6317 14.1375 10.6317 13.8409C10.6317 13.4498 10.7639 13.119 11.0285 12.8492C11.2927 12.5795 11.6207 12.4446 12.0122 12.4446C12.3083 12.4446 12.5542 12.5319 12.7501 12.7064C12.9457 12.881 13.0437 13.1216 13.0437 13.4285C13.0436 13.8199 12.9088 14.1453 12.639 14.4042Z" fill="#003087"/>
<path d="M26.7772 9.3579C26.3699 9.07786 25.8385 8.9375 25.1826 8.9375H22.6596C22.448 8.9375 22.3315 9.03804 22.3105 9.23893L21.2791 15.7128C21.2684 15.7764 21.2843 15.8345 21.3267 15.8874C21.3687 15.9404 21.4219 15.9667 21.4853 15.9667H22.7864C22.9133 15.9667 22.9979 15.898 23.0404 15.7605L23.326 13.9199C23.3365 13.8353 23.3735 13.7666 23.4371 13.7136C23.5006 13.6607 23.5798 13.6262 23.6751 13.6103C23.7703 13.5946 23.86 13.5867 23.9449 13.5867C24.0294 13.5867 24.1298 13.5921 24.2463 13.6026C24.3626 13.6131 24.4369 13.6183 24.4684 13.6183C25.3783 13.6183 26.0922 13.362 26.6106 12.8487C27.129 12.3358 27.3881 11.6245 27.3881 10.7145C27.3882 10.0904 27.1844 9.63819 26.7772 9.35776V9.3579ZM25.1509 11.9682C24.9181 12.1268 24.569 12.2061 24.1037 12.2061L23.5958 12.222L23.8656 10.5241C23.8865 10.4079 23.9553 10.3496 24.0718 10.3496H24.3573C24.5901 10.3496 24.7751 10.3602 24.9129 10.3813C25.0501 10.4026 25.1826 10.4686 25.3095 10.5796C25.4365 10.6907 25.4999 10.8521 25.4999 11.0636C25.4999 11.508 25.3834 11.8094 25.1509 11.9682Z" fill="#009CDE"/>
</g>
<defs>
<clipPath id="clip0_1907_29044">
<rect width="39" height="26" fill="white"/>
</clipPath>
</defs>
</svg>
