<svg width="30" height="39" viewBox="0 0 30 39" fill="none" xmlns="http://www.w3.org/2000/svg">
<rect width="30" height="39" fill="#E5E5E5"/>
<g id="Home page - 1" clip-path="url(#clip0_0_1)" filter="url(#filter0_d_0_1)">
<rect width="1920" height="5459" transform="translate(-830 -62)" fill="white"/>
<g id="Component 50">
<rect id="Rectangle 1139" x="-830" y="-22" width="1920" height="147" fill="white"/>
<g id="Group 2489">
<g id="Frame 2493">
<path id="Vector" d="M3.62119 38.0736C4.5315 37.887 5.44181 37.6737 6.56019 37.4338C6.06603 37.0872 5.75392 36.8473 5.44181 36.6341C-1.6586 31.6224 -0.982372 20.8526 6.66423 16.8006C7.4705 16.3741 7.80862 15.9209 7.7566 14.9878C7.67857 13.7616 7.78261 12.5087 7.73059 11.2557C7.67857 10.1894 8.12073 9.52298 8.95301 8.96317C9.60323 8.53664 10.1754 7.97682 10.7736 7.49698C9.13507 5.68425 9.16108 4.53796 10.9297 3.25838C10.7476 2.9918 10.5656 2.72522 10.3835 2.4853C10.5916 1.4723 11.97 1.4723 13.2445 2.4853C13.0624 2.69856 12.8803 2.93848 12.6983 3.15175C14.3108 4.85785 14.779 4.85785 16.3135 3.1784C18.2642 1.04577 23.9601 -0.153831 26.535 1.07243C28.2256 1.89883 29.5 3.12509 29.5 5.2044C29.5 6.93717 28.2256 8.64327 26.2229 9.2564C22.6857 10.3494 19.4086 9.46967 16.5476 7.25706C14.5189 5.68425 14.6229 5.5243 12.8023 7.49698C13.2185 7.87019 13.5826 8.43001 14.0768 8.58996C15.6113 9.14977 15.9494 10.2961 15.8193 11.7622C15.8193 11.8156 15.8193 11.8422 15.8193 11.8955C15.5593 14.5347 15.5593 17.0405 18.6803 18.0002C24.7144 22.8253 24.4803 32.1289 18.2122 36.6341C17.9001 36.8473 17.5879 37.0872 17.0158 37.4604C18.4462 37.7803 19.6426 38.0469 20.8391 38.3135C20.8391 38.3935 20.813 38.4734 20.813 38.5801C15.1171 38.5801 9.39516 38.5801 3.69922 38.5801C3.67321 38.3935 3.6472 38.2335 3.62119 38.0736Z" fill="#4D2952"/>
</g>
</g>
</g>
</g>
<defs>
<filter id="filter0_d_0_1" x="-834" y="-62" width="1928" height="5467" filterUnits="userSpaceOnUse" color-interpolation-filters="sRGB">
<feFlood flood-opacity="0" result="BackgroundImageFix"/>
<feColorMatrix in="SourceAlpha" type="matrix" values="0 0 0 0 0 0 0 0 0 0 0 0 0 0 0 0 0 0 127 0" result="hardAlpha"/>
<feOffset dy="4"/>
<feGaussianBlur stdDeviation="2"/>
<feComposite in2="hardAlpha" operator="out"/>
<feColorMatrix type="matrix" values="0 0 0 0 0 0 0 0 0 0 0 0 0 0 0 0 0 0 0.25 0"/>
<feBlend mode="normal" in2="BackgroundImageFix" result="effect1_dropShadow_0_1"/>
<feBlend mode="normal" in="SourceGraphic" in2="effect1_dropShadow_0_1" result="shape"/>
</filter>
<clipPath id="clip0_0_1">
<rect width="1920" height="5459" fill="white" transform="translate(-830 -62)"/>
</clipPath>
</defs>
</svg>
