<svg width="40" height="26" viewBox="0 0 40 26" fill="none" xmlns="http://www.w3.org/2000/svg">
<g clip-path="url(#clip0_1907_29036)">
<path d="M0.25 3.25C0.25 1.45507 1.70507 0 3.5 0H36C37.7949 0 39.25 1.45507 39.25 3.25V22.75C39.25 24.5449 37.7949 26 36 26H3.5C1.70507 26 0.25 24.5449 0.25 22.75V3.25Z" fill="#D8E3F3"/>
<path d="M33.8143 8.15332H31.7712C31.1535 8.15332 30.6784 8.34338 30.3933 8.96107L26.4971 17.8463H29.2529C29.2529 17.8463 29.7281 16.6584 29.8231 16.3734C30.1082 16.3734 32.8165 16.3734 33.1966 16.3734C33.2917 16.706 33.5292 17.7988 33.5292 17.7988H36L33.8143 8.15332ZM30.5833 14.3777C30.8209 13.8076 31.6286 11.6694 31.6286 11.6694C31.6286 11.7169 31.8662 11.0992 31.9613 10.7666L32.1513 11.6219C32.1513 11.6219 32.674 13.9501 32.769 14.4253H30.5833V14.3777Z" fill="#3362AB"/>
<path d="M26.6871 14.6628C26.6871 16.6584 24.8816 17.9888 22.0782 17.9888C20.8904 17.9888 19.75 17.7512 19.1323 17.4662L19.5124 15.2805L19.845 15.423C20.7003 15.8031 21.2705 15.9457 22.3158 15.9457C23.076 15.9457 23.8838 15.6606 23.8838 14.9954C23.8838 14.5678 23.5512 14.2827 22.5059 13.8075C21.5081 13.3324 20.1776 12.5721 20.1776 11.1942C20.1776 9.29364 22.0307 8.01074 24.644 8.01074C25.6418 8.01074 26.4971 8.2008 27.0198 8.43837L26.6396 10.529L26.4496 10.339C25.9744 10.1489 25.3567 9.95884 24.454 9.95884C23.4562 10.0064 22.981 10.434 22.981 10.8141C22.981 11.2417 23.5512 11.5743 24.454 12.002C25.9744 12.7147 26.6871 13.5224 26.6871 14.6628Z" fill="#3362AB"/>
<path d="M3.5 8.24816L3.54751 8.05811H7.63377C8.20395 8.05811 8.63158 8.24816 8.77412 8.86585L9.6769 13.1422C8.77412 10.8615 6.68348 9.0084 3.5 8.24816Z" fill="#F9B50B"/>
<path d="M15.4261 8.15347L11.2924 17.7989H8.48901L6.11328 9.72145C7.82381 10.8143 9.24925 12.5248 9.77191 13.7127L10.057 14.7105L12.6228 8.10596H15.4261V8.15347Z" fill="#3362AB"/>
<path d="M16.519 8.10596H19.1323L17.4693 17.7989H14.856L16.519 8.10596Z" fill="#3362AB"/>
</g>
<defs>
<clipPath id="clip0_1907_29036">
<rect width="39" height="26" fill="white" transform="translate(0.25)"/>
</clipPath>
</defs>
</svg>
