<svg width="25" height="25" viewBox="0 0 25 25" fill="none" xmlns="http://www.w3.org/2000/svg">
<g id="Wishlist">
<g id="Group">
<path id="Vector" d="M22.3492 6.8069L22.3549 6.8174L22.361 6.8277C22.5927 7.22332 22.7679 7.64948 22.8814 8.09374L22.8822 8.09651C23.0026 8.56019 23.06 9.03801 23.0526 9.51704L23.0525 9.52463L23.0525 9.53222C23.0583 10.4399 22.8193 11.3323 22.3608 12.1156L22.3563 12.1233L22.352 12.1311C22.1279 12.5374 21.8429 12.9124 21.5098 13.2399L21.5098 13.2399L21.5056 13.2441L12.5011 22.2485L3.49671 13.2441L3.4948 13.2422C3.15901 12.9089 2.8684 12.5331 2.63041 12.1243C2.41021 11.7244 2.23858 11.2997 2.11918 10.8591C2.00633 10.4249 1.94973 9.97741 1.94973 9.5278H1.94981L1.94964 9.51711C1.94233 9.03804 1.99967 8.56018 2.12013 8.09644L2.12017 8.09645L2.12203 8.08892C2.34677 7.18249 2.82058 6.357 3.48989 5.70574L3.48993 5.70578L3.49587 5.69985C3.98885 5.20852 4.57255 4.8176 5.21454 4.5488C6.50495 4.01986 7.95162 4.01967 9.24215 4.54823C9.83929 4.80145 10.389 5.1542 10.8679 5.59135L10.9186 5.65217L10.9389 5.67657L10.9614 5.69902L12.0062 6.74379L12.5011 7.23877L12.9961 6.74379L14.0409 5.69902L14.0633 5.67657L14.0837 5.65218L14.1343 5.59136C14.6132 5.1542 15.163 4.80145 15.7601 4.54823C17.0506 4.01967 18.4973 4.01986 19.7877 4.54879C20.4297 4.81759 21.0134 5.20851 21.5064 5.69985L21.5063 5.69992L21.5145 5.70777C21.8475 6.02913 22.1291 6.39985 22.3492 6.8069Z" stroke="black" stroke-width="1.4"/>
</g>
</g>
</svg>
